# xmcd
#
# Track frame offsets:
#	150
#	18738
#	38496
#	64608
#	82991
#	91323
#	108858
#	129431
#	147548
#	169973
#	186891
#
# Disc length: 2713 seconds
#
# Revision: 1
# Processed by: cddbd v1.5.2PL0 Copyright (c) Steve Scherf et al.
# Submitted via: audiograbber 1.83.01
#
DISCID=8d0a970b
DTITLE=Jerry Douglas - Traveler
DYEAR=2012
DGENRE=Blues
TTITLE0=On A Monday
TTITLE1=Something You Got ( feat. Eric Clapton )
TTITLE2=So Here We Are
TTITLE3=The Boxer ( feat. Mumford and Sons and Paul Simon )
TTITLE4=Duke And Cookie
TTITLE5=High Blood Pressure ( feat. Keb' Mo' )
TTITLE6=Gone To Fortingall
TTITLE7=Right On Time ( feat. Marc Cohn )
TTITLE8=American Tune - Spain
TTITLE9=Frozen Fields ( feat. Alison Krauss and Union Station )
TTITLE10=King Silkie
EXTD=
EXTT0=
EXTT1=
EXTT2=
EXTT3=
EXTT4=
EXTT5=
EXTT6=
EXTT7=
EXTT8=
EXTT9=
EXTT10=
PLAYORDER=
